PathFileType	4	(X/Y/Z)	C:\Users\ebm\Documents\Erivelton\Erivelton2\wc3.trc
DataRate	CameraRate	NumFrames	NumMarkers	Units	OrigDataRate	OrigDataStartFrame	OrigNumFrames
150.00	150.00	      6	28	mm	150.00	467	      1245
Frame#	Time	IJ			PX			C7			T8			RAC			RAS			RPS			RAI			RPI			RLE			RME			RRS			RUS			R3M			R5M			LAC			LAS			LPS			LAI			LPI			LLE			LME			LRS			LUS			L3M			L5M			RW			LW			V_mid_elbow_r			V_mid_elbow_l			V_mid_wrist_r			V_mid_wrist_l			V_mid_trunk_low			V_mid_trunk_upp			
		X1	Y1	Z1	X2	Y2	Z2	X3	Y3	Z3	X4	Y4	Z4	X5	Y5	Z5	X6	Y6	Z6	X7	Y7	Z7	X8	Y8	Z8	X9	Y9	Z9	X10	Y10	Z10	X11	Y11	Z11	X12	Y12	Z12	X13	Y13	Z13	X14	Y14	Z14	X15	Y15	Z15	X16	Y16	Z16	X17	Y17	Z17	X18	Y18	Z18	X19	Y19	Z19	X20	Y20	Z20	X21	Y21	Z21	X22	Y22	Z22	X23	Y23	Z23	X24	Y24	Z24	X25	Y25	Z25	X26	Y26	Z26	X27	Y27	Z27	X28	Y28	Z28	

467	3.107				-707.22150	843.65796	-38.02594	-818.16052	1127.01538	-55.02607	-912.53809	988.87952	-46.02675	-780.57336	1071.26440	149.43024	-885.42517	947.19824	231.95735	-913.35449	986.95410	220.54680	-943.32886	905.19464	263.93781	-975.46478	947.08362	254.49011	-1018.01978	892.67590	282.57962	-1046.60547	879.66266	205.50996	-957.86255	634.36371	278.34235	-923.95209	562.39136	279.93021	-916.32312	646.56805	234.20320	-887.71375	580.25458	272.36548	-792.42737	1071.67517	-231.15364	-900.12567	983.71918	-309.28952	-929.72845	1000.74353	-276.30328	-954.80927	935.41077	-343.99326	-991.26746	953.70209	-308.55151	-1022.08923	878.00171	-374.05972	-1057.28516	870.25494	-301.61639	-970.06458	611.47333	-386.41415	-941.92877	550.30719	-391.52377	-924.86609	634.07056	-347.21008	-903.29401	560.39691	-387.29193	-807.71075	297.67062	261.97614	-792.08325	297.07318	-366.49707	
468	3.113				-700.84540	843.67242	-37.92393	-811.47919	1126.99512	-54.85869	-906.08752	988.99579	-45.91360	-774.21289	1070.91455	149.73859	-878.97821	945.88696	231.61772	-906.95691	985.63300	220.49002	-936.91711	903.42902	262.89459	-968.97961	945.37042	254.04156	-1011.48639	890.82452	281.75131	-1039.91980	878.11328	204.57257	-952.09808	632.60773	277.71393	-917.48291	560.62628	279.69992	-910.03198	644.67133	233.44574	-880.72461	579.21716	272.38705	-785.76685	1071.49768	-231.14580	-893.25403	983.01526	-309.07358	-923.12183	1000.24304	-276.28351	-948.23187	934.66980	-343.76114	-984.51361	952.95837	-308.37149	-1015.18140	877.00800	-373.59384	-1050.48584	869.53308	-301.16153	-964.01617	610.20581	-385.01028	-935.34753	549.04773	-389.90067	-918.70386	632.93140	-346.14917	-896.36761	559.05170	-385.42401	-801.80762	297.79596	262.14212	-785.88202	297.04044	-366.35089	
469	3.120				-694.65198	843.49469	-37.87635	-804.87708	1126.99255	-54.70565	-899.61102	989.14362	-45.83652	-767.64697	1070.50085	150.03046	-872.40137	944.42761	231.28532	-900.50403	984.15179	220.36304	-930.25885	901.68115	262.34903	-962.45160	943.50854	253.56789	-1004.77173	888.72485	280.93637	-1032.97559	876.21045	203.69620	-945.53864	630.73688	276.91006	-910.50702	559.06873	279.47958	-903.25836	642.71368	232.85150	-873.00763	578.14929	272.48389	-779.18280	1071.26648	-231.18051	-886.34314	982.22168	-308.94220	-916.38293	999.52789	-276.27100	-941.18835	933.54169	-343.39828	-977.75049	952.10516	-308.26053	-1008.16333	875.82684	-373.21548	-1043.49280	868.55627	-300.72742	-957.19513	608.81531	-383.56268	-927.99927	547.82471	-388.55051	-911.90759	631.90228	-344.99310	-889.02759	558.19635	-384.17200	-795.69061	297.81110	262.29440	-779.65973	297.07169	-366.21524	
470	3.127				-688.21582	843.40814	-37.69930	-798.33667	1126.96143	-54.59155	-893.17218	989.28314	-45.77819	-761.35730	1070.21082	150.32057	-865.79266	942.92059	231.02393	-894.01544	982.61963	220.34966	-923.39172	899.65100	261.81799	-955.85156	941.43628	253.22679	-997.94672	886.40936	280.22299	-1025.87244	874.01379	202.84518	-937.82410	628.33868	276.39883	-902.67328	557.08990	279.59109	-896.08429	640.57794	232.23012	-864.59497	577.07959	272.63928	-772.57660	1071.07495	-231.18794	-879.64575	981.34229	-308.88824	-909.67212	998.73425	-276.34509	-934.18811	932.48438	-343.22998	-970.83264	951.06171	-308.22260	-1000.90387	874.42047	-372.92917	-1036.34338	867.36877	-300.47556	-949.83130	607.42346	-382.31335	-919.84662	546.70404	-387.35522	-904.64685	630.67957	-343.59076	-881.29150	557.98212	-383.55319	-789.69379	297.74280	262.41132	-773.57056	297.10931	-366.00864	
471	3.133				-681.93066	843.23627	-37.47306	-791.78564	1126.90271	-54.48199	-886.73370	989.34387	-45.69299	-754.78552	1069.86719	150.64130	-859.07080	941.23206	230.85001	-887.30841	980.72540	220.30753	-916.47845	897.65405	261.37653	-949.04803	939.12018	252.88068	-990.90735	883.88715	279.59531	-1018.54694	871.50916	202.08818	-930.26733	626.03430	276.09256	-894.16693	555.00934	279.61008	-888.11890	638.37970	231.94142	-855.51892	576.03668	272.83655	-765.81567	1070.83020	-231.13329	-872.79205	980.41235	-308.91553	-902.93445	997.86029	-276.43085	-927.01239	931.18829	-343.09766	-963.80804	949.81604	-308.25027	-993.49847	872.86029	-372.71078	-1029.06616	865.95746	-300.34091	-941.74481	605.94836	-381.01578	-910.94745	545.63068	-386.37781	-896.73322	629.57715	-342.26624	-872.57245	557.57538	-382.77408	-783.69794	297.77133	262.52631	-767.55664	297.19232	-365.85016	
472	3.140				-675.89612	843.43683	-36.45033	-785.19519	1126.87354	-54.40184	-880.36169	989.43372	-45.60657	-748.37573	1069.52710	150.97339	-852.15320	939.42242	230.71867	-880.92670	978.90430	220.30620	-909.30078	895.29504	261.05194	-942.27209	936.62994	252.71861	-983.66565	881.01227	278.98581	-1011.00244	868.61829	201.45682	-921.87701	623.54639	275.83459	-884.67737	552.71484	280.18829	-880.02740	636.21460	231.84436	-845.81189	575.04913	273.05908	-759.22858	1070.66187	-231.08612	-865.73932	979.37170	-308.89691	-896.10852	996.84186	-276.59390	-919.81909	929.81201	-343.06006	-956.81970	948.51331	-308.43564	-985.90997	871.10931	-372.61203	-1021.64697	864.35291	-300.38538	-932.98138	604.38574	-379.74509	-901.22693	544.61829	-385.51685	-888.41101	628.60376	-340.94073	-862.64325	557.00085	-381.57788	-777.97662	297.85016	262.66959	-761.52740	297.31097	-365.80438	
